<svg width="224" height="224" viewBox="0 0 224 224" fill="none" xmlns="http://www.w3.org/2000/svg">
<ellipse cx="112.5" cy="112.5" rx="68.5" ry="64.5" fill="#EFF3FF"/>
<g filter="url(#filter0_d_1_2)">
<path d="M188.255 63.4386C161.375 21.9986 106.495 9.67863 63.9352 35.4386C22.4952 61.1986 9.05519 117.199 35.9352 158.639L38.1752 161.999L29.2152 195.599L62.8152 186.639L66.1752 188.879C80.7352 196.719 96.4152 201.199 112.095 201.199C128.895 201.199 145.695 196.719 160.255 187.759C201.695 160.879 214.015 105.999 188.255 63.4386V63.4386ZM164.735 149.679C160.255 156.399 154.655 160.879 146.815 161.999C142.335 161.999 136.735 164.239 114.335 155.279C95.2952 146.319 79.6152 131.759 68.4152 114.959C61.6952 107.119 58.3352 97.0386 57.2152 86.9586C57.2152 77.9986 60.5752 70.1586 66.1752 64.5586C68.4152 62.3186 70.6552 61.1986 72.8952 61.1986H78.4952C80.7352 61.1986 82.9752 61.1986 84.0952 65.6786C86.3352 71.2786 91.9352 84.7186 91.9352 85.8386C93.0552 86.9586 93.0552 89.1986 91.9352 90.3186C93.0552 92.5586 91.9352 94.7986 90.8152 95.9186C89.6952 97.0386 88.5752 99.2786 87.4552 100.399C85.2152 101.519 84.0952 103.759 85.2152 105.999C89.6952 112.719 95.2952 119.439 100.895 125.039C107.615 130.639 114.335 135.119 122.175 138.479C124.415 139.599 126.655 139.599 127.775 137.359C128.895 135.119 134.495 129.519 136.735 127.279C138.975 125.039 140.095 125.039 142.335 126.159L160.255 135.119C162.495 136.239 164.735 137.359 165.855 138.479C166.975 141.839 166.975 146.319 164.735 149.679V149.679Z" fill="#4CCA5A"/>
</g>
<defs>
<filter id="filter0_d_1_2" x="18" y="22" width="187.694" height="187.199" filterUnits="userSpaceOnUse" color-interpolation-filters="sRGB">
<feFlood flood-opacity="0" result="BackgroundImageFix"/>
<feColorMatrix in="SourceAlpha" type="matrix" values="0 0 0 0 0 0 0 0 0 0 0 0 0 0 0 0 0 0 127 0" result="hardAlpha"/>
<feOffset dy="4"/>
<feGaussianBlur stdDeviation="2"/>
<feComposite in2="hardAlpha" operator="out"/>
<feColorMatrix type="matrix" values="0 0 0 0 0 0 0 0 0 0 0 0 0 0 0 0 0 0 0.25 0"/>
<feBlend mode="normal" in2="BackgroundImageFix" result="effect1_dropShadow_1_2"/>
<feBlend mode="normal" in="SourceGraphic" in2="effect1_dropShadow_1_2" result="shape"/>
</filter>
</defs>
</svg>
